<svg width="509" height="120" viewBox="0 0 509 120" fill="none" xmlns="http://www.w3.org/2000/svg">
<path fill-rule="evenodd" clip-rule="evenodd" d="M14.6516 0.662666C13.7902 1.16977 11.7508 4.24716 10.1301 7.48608C6.55685 14.6264 4.44714 21.4084 3.4055 29.1004C2.90626 32.7883 2.84297 41.0563 3.28669 44.6364C5.00021 58.4639 10.1781 68.4686 19.58 76.1192C22.229 78.2748 24.7783 79.9103 29.6257 82.5645C35.2849 85.6629 44.0506 90.7923 45.6133 91.9194C48.6873 94.1368 51.4568 97.6336 52.8818 101.097C53.931 103.647 54.7044 108.026 54.717 111.486C54.7246 113.604 53.0937 114.372 51.852 112.834C50.3015 110.913 45.2128 105.977 43.3535 104.591C38.2746 100.802 33.2567 98.6257 27.4435 97.6892C26.51 97.5387 23.2913 97.3762 20.2907 97.3279C13.3527 97.2167 10.3195 96.652 8.53103 95.1383C8.06258 94.7417 8.07494 94.7321 8.89473 94.8598C12.2017 95.3748 15.8936 95.5432 19.5633 95.3463C25.5203 95.027 29.3125 95.1086 31.6867 95.6076C35.6642 96.4436 39.8693 98.2507 43.2061 100.558C44.8081 101.666 45.7494 102.193 45.8827 102.058C45.9356 102.005 45.6562 101.272 45.2622 100.43C43.1433 95.9007 38.5083 91.9922 32.7778 89.9018C31.2297 89.3371 30.6584 89.2737 26.2734 89.1793C21.8095 89.0835 20.3179 89.1646 11.1982 89.9996C8.34529 90.2609 5.20485 89.6521 1.4192 88.1033C0.68234 87.8021 0.580019 87.8161 0.249535 88.2631C-0.212851 88.8886 -0.0368195 90.4075 0.812545 93.1255C2.30251 97.8931 4.77423 102.093 8.19157 105.664C12.7856 110.464 17.7509 112.948 24.2131 113.677C27.684 114.069 30.4656 113.722 35.445 112.277C37.5787 111.657 40.2696 111.026 41.4249 110.873C46.1805 110.245 49.8289 111.76 52.5613 115.499C53.7586 117.137 54.5619 117.421 55.3576 116.486C55.6619 116.128 56.0365 115.422 56.19 114.917C56.6059 113.549 56.7836 98.4103 56.4386 93.7608C55.5897 82.3201 53.1846 72.7438 49.0731 64.4324C45.6914 57.5967 41.8815 52.6971 34.3444 45.4903C24.4857 36.0638 22.5755 33.9905 19.934 29.8506C17.7172 26.3762 15.9263 21.9515 15.9263 19.9489C15.9263 19.6241 16.6687 20.5773 17.8927 22.4731C22.4155 29.4786 28.2837 35.6748 36.4148 42.0301C50.3439 52.9169 58.4787 66.4983 61.0333 83.1318C61.8262 88.295 62.1067 88.7026 62.9207 85.8735C64.0688 81.8831 64.6623 76.8035 64.6623 70.9705C64.6623 58.8158 61.0622 48.9739 53.5576 40.6135C50.9142 37.6687 47.2168 34.568 38.2782 27.8004C29.2938 20.9983 26.1989 18.4097 23.2905 15.2649C19.8734 11.5698 17.6864 7.71279 16.5497 3.37757C15.9937 1.25604 15.6072 0.385956 15.2299 0.404338C15.146 0.408504 14.8859 0.524678 14.6516 0.662666Z" fill="#62A94A"/>
<path fill-rule="evenodd" clip-rule="evenodd" d="M68.4166 7.33431C62.5832 8.34418 55.9849 10.7874 50.603 13.9296C45.8665 16.6952 41.8286 19.8244 38.6752 23.1729L37.4133 24.513L39.0793 25.3405C39.9955 25.7956 40.8077 26.1636 40.8841 26.1582C40.9601 26.1529 41.898 25.1681 42.9677 23.9699C45.2677 21.3936 47.4772 19.597 50.7693 17.6266C52.6637 16.4926 53.3283 16.2086 53.8905 16.2929C54.8215 16.4324 55.3639 16.9284 55.4161 17.6884C55.483 18.6634 56.2667 18.2726 56.3643 17.2155C56.4707 16.0649 57.099 14.9855 57.7959 14.7557C58.4473 14.5407 58.8033 14.7487 59.469 15.7327L59.9429 16.4329L58.768 17.4389C57.6685 18.3803 57.6235 18.4645 58.0679 18.748C58.7029 19.1531 59.4798 18.8652 60.6174 17.8032C62.0011 16.5115 62.178 16.4475 61.7021 17.4097C61.2819 18.26 61.2832 18.2933 61.7575 18.8086L62.2437 19.3367L62.6062 18.7276C62.8055 18.3928 62.9599 17.9943 62.9495 17.8424C62.9143 17.3294 64.0218 16.1904 64.5947 16.1502C65.3787 16.0953 66.4476 16.8343 68.2062 18.6474L69.7007 20.1885L68.8966 21.1231C68.454 21.6372 68.0983 22.1464 68.1057 22.2549C68.1131 22.3631 67.8433 22.6032 67.5058 22.7881C67.0006 23.0651 66.7812 23.0615 66.2624 22.7673C65.698 22.4473 65.643 22.3033 65.7358 21.3845C65.9279 19.477 65.8451 18.9713 65.2875 18.6471C64.8192 18.3746 64.6902 18.4018 64.1617 18.8861C63.8331 19.1867 63.0034 19.6784 62.3176 19.9785C61.632 20.2787 60.4956 20.8952 59.7927 21.3485C59.0897 21.8016 58.1406 22.2797 57.6839 22.4107C56.598 22.7222 55.4458 23.7627 55.2073 24.6472C54.9284 25.6827 55.4419 26.3661 56.988 27.0167C58.7609 27.7623 58.977 27.9686 58.6459 28.5976C58.2971 29.261 58.3786 30.2045 58.8123 30.5199C59.2348 30.8271 59.4774 30.5403 59.9157 29.2175C60.0807 28.7196 60.5373 28.045 60.9303 27.7182C61.3548 27.3652 61.6308 26.9075 61.6098 26.5908C61.5907 26.2976 61.7298 25.7154 61.9195 25.2971C62.1093 24.8788 62.4407 24.1101 62.6558 23.5886C62.9016 22.9938 63.218 22.6287 63.5054 22.6086C63.7573 22.5909 64.61 23.0962 65.4005 23.7313C66.7789 24.8386 66.8666 24.8715 67.5382 24.5333C68.4488 24.0747 68.8978 24.384 69.3488 25.7795C69.5999 26.5564 70.0355 27.0971 71.102 27.9558C72.4361 29.0299 72.5161 29.1522 72.4392 29.9983C72.3666 30.7972 72.4575 30.9788 73.2466 31.6143C74.1114 32.3106 74.4457 33.1927 73.9744 33.535C73.8465 33.6279 73.3815 33.6156 72.9411 33.5076C72.5008 33.3997 71.8235 33.269 71.4363 33.2171C70.7787 33.1292 70.7361 33.0608 70.792 32.1781L70.852 31.2335L69.4144 31.9229C67.8433 32.6762 67.5201 32.9698 67.3313 33.8154C67.2294 34.272 67.3331 34.4152 67.8891 34.5856C68.2649 34.7007 68.8389 34.7434 69.1648 34.6805C70.0055 34.5182 70.114 35.0597 69.3357 35.5335C68.2341 36.2041 67.2902 36.3753 66.3734 36.0709C65.1658 35.6703 65.1998 35.6495 61.3447 39.1547L59.4858 40.8449L61.1035 43.0872C65.2466 48.8304 67.388 54.6531 68.4425 63.0429L68.8902 66.6049L70.0419 67.8172C70.6754 68.4842 71.8635 69.4625 72.6819 69.9915C74.0445 70.8722 74.2907 70.9448 75.6021 70.8528C78.1568 70.6737 79.2674 71.4852 80.263 74.2578C80.8486 75.8886 81.4616 76.3331 82.9782 76.2268C83.8173 76.1679 84.3262 76.3036 85.0861 76.7889C86.2586 77.5373 87.6216 77.8617 89.1532 77.7561C89.8048 77.7114 90.6517 77.8631 91.2416 78.1308C91.7871 78.3782 92.6642 78.7652 93.1903 78.9907C94.3596 79.4917 95.0471 80.6693 94.75 81.6619C94.6426 82.0207 93.98 83.2047 93.2774 84.293C91.5926 86.9035 91.6288 86.8155 91.5494 88.4841C91.4605 90.3571 90.152 93.5377 89.1826 94.2382C88.8011 94.5139 87.6812 95.0764 86.6938 95.4883C84.7737 96.2894 84.0799 96.9303 83.7308 98.2253C83.4672 99.2038 79.7219 103.15 78.799 103.422C77.6979 103.746 77.582 103.829 77.4051 104.42C77.172 105.199 76.776 105.532 75.7787 105.788C73.9262 106.262 72.8273 107.634 72.7811 109.528C72.7688 110.034 72.7039 110.737 72.6368 111.09C72.5334 111.634 72.6514 111.811 73.4148 112.263C73.9097 112.555 74.3219 112.889 74.3309 113.005C74.3572 113.351 71.644 113.095 70.4949 112.644C69.2803 112.167 67.9959 110.976 67.3627 109.74C67.0497 109.129 66.7848 107.539 66.4097 104.021C65.7762 98.0776 64.9495 93.8132 64.278 93.0237C64.014 92.7136 63.4077 89.6391 62.9204 89.3731C62.9204 89.3731 61.8292 87.1672 61.708 89.3731C61.5868 91.5789 60.6169 94.7651 60.6169 94.7651C60.2532 99.7895 60.5171 97.0249 59.647 103.422C59.5864 103.867 58.8668 111.08 58.7984 111.554C57.3436 115.23 59.0409 113.882 60.2532 114.495C61.5868 114.863 61.7668 115.048 63.0008 115.419C65.4246 116.147 68.5078 116.76 71.4587 117.099C75.2694 117.538 84.1764 116.972 88.4929 116.017C100.683 113.32 110.577 107.593 118.453 98.6722C122.938 93.5929 125.893 88.7985 128.428 82.4906C131.686 74.3838 132.832 66.9271 132.209 57.8961C131.697 50.4668 130.2 44.5974 127.164 38.1077C122.549 28.2419 114.426 19.4053 104.903 13.8895C93.9377 7.53844 80.834 5.18415 68.4166 7.33431ZM83.094 10.5923C84.0973 10.9188 84.0964 11.3335 83.0921 11.4132C82.6579 11.4476 81.8854 10.8776 81.8598 10.504C81.8391 10.2016 81.9098 10.2067 83.094 10.5923ZM77.0566 11.9439C78.3459 12.5197 81.7456 15.9124 81.7979 16.6758C81.8169 16.9524 81.2083 17.7344 80.2926 18.6096C78.5525 20.2731 77.9895 21.2954 78.0808 22.626C78.1415 23.5106 78.112 23.5482 77.3174 23.6039C76.1891 23.683 74.5022 22.5224 73.6312 21.0678L72.9447 19.9213L73.414 18.946L73.8832 17.9708L71.8102 15.9637C70.6698 14.8598 69.8097 13.8793 69.8989 13.7849C70.0434 13.632 73.5804 12.285 74.7981 11.9194C75.7311 11.6392 76.3902 11.6465 77.0566 11.9439ZM69.8616 12.5804C70.3381 12.8403 70.2974 12.877 68.5615 13.7599C66.5526 14.7815 65.6559 14.7808 65.9655 13.7578C66.2016 12.9771 69.0251 12.1238 69.8616 12.5804ZM95.2015 13.4006C98.3919 14.5932 100.213 16.09 98.0677 15.7563C97.1736 15.6173 97.1904 15.6399 99.2714 17.384C101.231 19.0265 101.766 19.6807 101.184 19.7215C101.054 19.7306 100.577 19.5436 100.124 19.3059C99.575 19.0179 98.8726 18.9032 98.0198 18.9625C96.219 19.0873 95.3805 18.648 94.5928 17.1664C94.2325 16.4887 93.3572 15.3671 92.6476 14.6744C90.9507 13.0172 90.5857 12.4328 91.1425 12.2649C91.6594 12.1089 92.006 12.2058 95.2015 13.4006ZM103.131 17.0953C115.896 24.6143 124.805 37.3712 127.664 52.2233C128.172 54.8661 128.612 61.2796 128.468 63.9618C128.328 66.5821 127.81 70.5085 127.326 72.6266C126.844 74.737 125.53 78.5567 125.398 78.2331C125.342 78.0947 125.615 76.7035 126.005 75.1415C126.909 71.5149 126.837 69.6708 125.692 67.2183C125.132 66.0185 124.853 64.9934 124.689 63.5427C124.564 62.436 124.384 61.3308 124.288 61.0864C124.122 60.6602 121.788 59.76 120.995 59.8156C120.796 59.8295 120.113 60.4683 119.476 61.2351C118.319 62.6284 116.621 63.6574 114.728 64.1132C113.649 64.3726 111.734 63.2617 110.161 61.4633C109.48 60.685 108.358 59.4985 107.668 58.8265L106.414 57.6047L106.428 55.477C106.441 53.5178 106.385 53.2465 105.726 52.0495C104.576 49.9607 104.603 46.9467 105.797 44.1897C106.309 43.0077 106.381 42.5138 106.272 40.92C106.202 39.8874 106.238 38.7295 106.352 38.3466C106.692 37.2113 106.329 36.5912 105.025 36.0771C103.972 35.6624 103.719 35.4026 102.661 33.6535C102.009 32.576 101.526 31.5271 101.588 31.3229C101.649 31.1188 102.229 30.6847 102.876 30.3581C103.522 30.0317 104.044 29.6586 104.035 29.5293C103.992 28.9084 103.023 27.9432 102.169 27.6712C101.098 27.33 100.928 26.8012 101.412 25.3197C101.564 24.8537 101.714 23.7217 101.745 22.8042C101.794 21.344 101.884 21.0637 102.469 20.5595C102.837 20.2424 103.123 19.7741 103.106 19.5186C103.088 19.263 102.43 18.4189 101.643 17.6422C100.856 16.8657 100.207 16.1557 100.2 16.0644C100.174 15.7133 101.689 16.2464 103.131 17.0953ZM86.9517 18.6577C87.3318 19.4838 85.3161 19.9491 84.557 19.2105C83.9764 18.6456 84.2076 18.4571 85.6016 18.3594C86.4561 18.2995 86.8242 18.3809 86.9517 18.6577ZM96.726 21.8262C99.459 23.2517 100.002 23.6191 100.184 24.1665C100.679 25.6551 98.9608 25.5223 97.8427 23.9858L97.0742 22.9294L96.9687 23.7476C96.7296 25.6031 96.7152 25.6119 95.3711 24.7354C94.9222 24.4426 94.9289 24.3916 95.5236 23.5668L96.1456 22.7044L95.3257 22.1043C93.7474 20.9491 94.6869 20.7627 96.726 21.8262Z" fill="url(#paint0_linear_227_261)"/>
<path d="M160.332 44.155V42.2917H164.703C164.938 42.2917 165.137 42.3816 165.301 42.5613C165.473 42.741 165.559 42.9597 165.559 43.2175C165.559 43.4753 165.473 43.6941 165.301 43.8738C165.137 44.0613 164.938 44.155 164.703 44.155H160.332ZM160.332 36.4207H164.703C164.938 36.4207 165.137 36.5144 165.301 36.7019C165.473 36.8816 165.559 37.1003 165.559 37.3582C165.559 37.616 165.473 37.8347 165.301 38.0144C165.137 38.1941 164.938 38.2839 164.703 38.2839H160.332V36.4207ZM170.129 43.3113C170.129 42.2097 169.816 41.2019 169.191 40.2878C169.816 39.3738 170.129 38.366 170.129 37.2644C170.129 35.7878 169.609 34.5261 168.57 33.4792C167.523 32.4324 166.262 31.9089 164.785 31.9089H155.703V48.6667H164.785C166.262 48.6667 167.523 48.1433 168.57 47.0964C169.609 46.0496 170.129 44.7878 170.129 43.3113ZM171.547 48.6667H176.199V31.9089H171.547V48.6667ZM185.996 36.5613C187.02 36.5613 187.898 36.9246 188.633 37.6511C189.359 38.3855 189.723 39.2644 189.723 40.2878C189.723 41.3113 189.359 42.1902 188.633 42.9246C187.898 43.6511 187.02 44.0144 185.996 44.0144C184.973 44.0144 184.094 43.6511 183.359 42.9246C182.633 42.1902 182.27 41.3113 182.27 40.2878C182.27 39.2644 182.633 38.3855 183.359 37.6511C184.094 36.9246 184.973 36.5613 185.996 36.5613ZM185.996 48.6667C188.309 48.6667 190.281 47.8464 191.914 46.2058C193.555 44.573 194.375 42.6003 194.375 40.2878C194.375 37.9753 193.555 36.0027 191.914 34.3699C190.281 32.7292 188.309 31.9089 185.996 31.9089C183.684 31.9089 181.711 32.7292 180.078 34.3699C178.438 36.0027 177.617 37.9753 177.617 40.2878C177.617 42.6003 178.438 44.573 180.078 46.2058C181.711 47.8464 183.684 48.6667 185.996 48.6667ZM210.113 48.6667C212.426 48.6667 214.398 47.8503 216.031 46.2175L212.738 42.9246C212.012 43.6511 211.137 44.0144 210.113 44.0144C209.082 44.0144 208.203 43.6511 207.477 42.9246C206.75 42.198 206.387 41.3191 206.387 40.2878C206.387 39.2644 206.75 38.3894 207.477 37.6628C208.203 36.9363 209.082 36.573 210.113 36.573C211.137 36.573 212.012 36.9363 212.738 37.6628L216.031 34.3699C214.398 32.7371 212.426 31.9207 210.113 31.9207C207.793 31.9207 205.816 32.7371 204.184 34.3699C202.551 36.0027 201.734 37.9753 201.734 40.2878C201.734 42.6082 202.551 44.5847 204.184 46.2175C205.816 47.8503 207.793 48.6667 210.113 48.6667ZM223.707 36.5613C224.73 36.5613 225.609 36.9246 226.344 37.6511C227.07 38.3855 227.434 39.2644 227.434 40.2878C227.434 41.3113 227.07 42.1902 226.344 42.9246C225.609 43.6511 224.73 44.0144 223.707 44.0144C222.684 44.0144 221.805 43.6511 221.07 42.9246C220.344 42.1902 219.98 41.3113 219.98 40.2878C219.98 39.2644 220.344 38.3855 221.07 37.6511C221.805 36.9246 222.684 36.5613 223.707 36.5613ZM223.707 48.6667C226.02 48.6667 227.992 47.8464 229.625 46.2058C231.266 44.573 232.086 42.6003 232.086 40.2878C232.086 37.9753 231.266 36.0027 229.625 34.3699C227.992 32.7292 226.02 31.9089 223.707 31.9089C221.395 31.9089 219.422 32.7292 217.789 34.3699C216.148 36.0027 215.328 37.9753 215.328 40.2878C215.328 42.6003 216.148 44.573 217.789 46.2058C219.422 47.8464 221.395 48.6667 223.707 48.6667ZM243.266 31.9089V39.8894L237.688 31.9089H233.492V48.6667H238.145V40.6863L243.734 48.6667H247.918V31.9089H243.266ZM259.578 42.6199C259.773 42.6199 259.938 42.6863 260.07 42.8191C260.211 42.9597 260.281 43.1238 260.281 43.3113C260.281 43.5066 260.211 43.6707 260.07 43.8035C259.938 43.9441 259.773 44.0144 259.578 44.0144H250.262V48.6667H259.578C261.055 48.6667 262.316 48.1433 263.363 47.0964C264.41 46.0496 264.934 44.7878 264.934 43.3113C264.934 41.8347 264.41 40.573 263.363 39.5261C262.316 38.4792 261.055 37.9558 259.578 37.9558H254.691C254.496 37.9558 254.332 37.8894 254.199 37.7566C254.059 37.616 253.988 37.4519 253.988 37.2644C253.988 37.0691 254.059 36.905 254.199 36.7722C254.332 36.6316 254.496 36.5613 254.691 36.5613H263.996V31.9089H254.691C253.215 31.9089 251.953 32.4324 250.906 33.4792C249.859 34.5261 249.336 35.7878 249.336 37.2644C249.336 38.741 249.859 40.0027 250.906 41.0496C251.953 42.0964 253.215 42.6199 254.691 42.6199H259.578ZM273.758 48.6667C275.797 48.6667 277.539 47.9441 278.984 46.4988C280.43 45.0535 281.152 43.3074 281.152 41.2605V31.9089H276.5V41.2605C276.5 42.0183 276.23 42.6667 275.691 43.2058C275.16 43.7449 274.516 44.0144 273.758 44.0144C273 44.0144 272.352 43.7449 271.812 43.2058C271.273 42.6667 271.004 42.0183 271.004 41.2605V31.9089H266.352V41.2605C266.352 43.3074 267.074 45.0535 268.52 46.4988C269.965 47.9441 271.711 48.6667 273.758 48.6667ZM282.57 31.9089V48.6667H296.996V44.0144H287.223V31.9089H282.57ZM293.492 31.9089V36.5613H298.613V48.6667H303.266V36.5613H308.387V31.9089H293.492ZM309.805 48.6667H314.457V31.9089H309.805V48.6667ZM325.648 31.9089V39.8894L320.07 31.9089H315.875V48.6667H320.527V40.6863L326.117 48.6667H330.301V31.9089H325.648ZM331.719 40.5222C331.727 40.5925 331.73 40.6589 331.73 40.7214C331.84 42.8621 332.652 44.6941 334.168 46.2175L334.18 46.2058C335.812 47.8464 337.785 48.6667 340.098 48.6667C341.41 48.6667 342.652 48.3738 343.824 47.7878V48.6667H348.477V38.4246H341.492V42.1511H343.32C342.602 43.3933 341.527 44.0144 340.098 44.0144C339.137 44.0144 338.305 43.6902 337.602 43.0417C336.891 42.4011 336.488 41.6121 336.395 40.6746C336.387 40.6199 336.383 40.5613 336.383 40.4988V40.4753C336.375 40.4128 336.371 40.3503 336.371 40.2878C336.371 40.2253 336.375 40.1628 336.383 40.1003V40.0769C336.383 40.0144 336.387 39.9597 336.395 39.9128V39.9011C336.535 38.5339 337.227 37.5457 338.469 36.9363C338.492 36.9285 338.5 36.9246 338.492 36.9246C338.516 36.9167 338.551 36.9011 338.598 36.8777C338.645 36.8621 338.668 36.8503 338.668 36.8425C338.676 36.8425 338.703 36.8347 338.75 36.8191C338.797 36.8035 338.832 36.7878 338.855 36.7722C338.84 36.78 338.852 36.7761 338.891 36.7605C339.555 36.5339 340.227 36.4988 340.906 36.655C341.609 36.8113 342.219 37.1433 342.734 37.6511L346.027 34.3582C344.387 32.7253 342.41 31.9089 340.098 31.9089C340.027 31.9089 339.957 31.9089 339.887 31.9089C339.91 31.9089 339.898 31.9089 339.852 31.9089C339.781 31.9089 339.719 31.9128 339.664 31.9207C337.523 32.03 335.691 32.8425 334.168 34.3582C332.652 35.8816 331.84 37.7136 331.73 39.8542C331.73 39.9167 331.727 39.9832 331.719 40.0535V40.0769C331.719 40.1472 331.719 40.2175 331.719 40.2878C331.719 40.3582 331.719 40.4285 331.719 40.4988V40.5222Z" fill="#1C1C1C"/>
<path d="M157.2 78.99H165.1V78.19H158V64.39H157.2V78.99ZM171.813 78.49C169.313 78.49 167.413 76.59 167.413 73.89H176.313V73.39C176.313 70.49 174.313 68.49 171.713 68.49C168.913 68.49 166.613 70.79 166.613 73.89C166.613 76.99 168.913 79.29 171.813 79.29C174.313 79.29 175.613 77.89 175.613 77.89V76.99H175.412C175.412 76.99 174.213 78.49 171.813 78.49ZM167.473 73.07C167.713 70.99 169.513 69.29 171.713 69.29C173.813 69.29 175.412 70.89 175.513 73.07H167.473ZM179.829 76.09C179.829 78.09 181.029 79.29 182.529 79.29C183.829 79.29 184.529 78.39 184.529 78.39V77.59H184.329C184.329 77.59 183.629 78.49 182.529 78.49C181.429 78.49 180.629 77.69 180.629 76.09V69.59H184.029V68.79H180.629V65.79L179.829 66.19V68.79H177.829V69.59H179.829V76.09ZM188.227 64.19C188.227 63.69 187.927 63.39 187.527 63.39C187.127 63.39 186.827 63.69 186.827 64.09C186.827 64.49 187.127 64.79 187.627 64.79C187.627 66.19 186.727 67.29 186.727 67.29H187.027C187.027 67.29 188.227 66.19 188.227 64.19ZM194.131 69.29C196.231 69.29 197.131 70.69 197.131 70.69L197.531 69.99C197.531 69.99 196.431 68.49 194.131 68.49C192.031 68.49 190.731 69.79 190.731 71.29C190.731 74.79 197.231 73.19 197.231 76.29C197.231 77.49 196.231 78.49 194.331 78.49C192.031 78.49 190.731 76.89 190.731 76.89L190.531 77.69C190.531 77.69 191.931 79.29 194.331 79.29C196.631 79.29 198.031 77.89 198.031 76.29C198.031 72.39 191.531 73.99 191.531 71.29C191.531 70.19 192.431 69.29 194.131 69.29ZM213.826 73.59C213.826 71.09 215.626 69.29 217.526 69.29C219.126 69.29 220.326 70.49 220.326 72.59V78.99H221.126V72.59C221.126 70.09 219.526 68.49 217.526 68.49C214.726 68.49 213.726 71.19 213.726 71.19H213.626C213.626 71.19 212.926 68.49 210.226 68.49C207.626 68.49 206.626 70.79 206.626 70.79H206.526L206.426 68.79H205.726V78.99H206.526V73.59C206.526 71.09 208.326 69.29 210.226 69.29C211.826 69.29 213.026 70.49 213.026 72.59V78.99H213.826V73.59ZM227.332 78.49C225.632 78.49 224.732 77.59 224.732 76.19C224.732 74.79 225.632 73.89 227.632 73.89C229.932 73.89 231.332 75.49 231.332 75.49C231.332 75.49 230.032 78.49 227.332 78.49ZM228.132 68.49C225.832 68.49 224.232 69.89 224.232 69.89V70.69H224.432C224.432 70.69 226.032 69.29 228.132 69.29C230.132 69.29 231.332 70.49 231.332 72.79V74.59C231.332 74.59 229.932 73.09 227.632 73.09C225.232 73.09 223.932 74.39 223.932 76.19C223.932 77.99 225.232 79.29 227.332 79.29C230.132 79.29 231.232 76.79 231.232 76.79H231.332L231.432 78.99H232.132V72.79C232.132 70.09 230.532 68.49 228.132 68.49ZM242.928 78.99H244.028L238.748 73.31L243.828 68.79H242.728L236.428 74.45V63.79H235.628V78.99H236.428V75.49L238.168 73.87L242.928 78.99ZM250.23 78.49C247.73 78.49 245.83 76.59 245.83 73.89H254.73V73.39C254.73 70.49 252.73 68.49 250.13 68.49C247.33 68.49 245.03 70.79 245.03 73.89C245.03 76.99 247.33 79.29 250.23 79.29C252.73 79.29 254.03 77.89 254.03 77.89V76.99H253.83C253.83 76.99 252.63 78.49 250.23 78.49ZM245.89 73.07C246.13 70.99 247.93 69.29 250.13 69.29C252.23 69.29 253.83 70.89 253.93 73.07H245.89ZM263.54 76.09C263.54 78.09 264.74 79.29 266.24 79.29C267.54 79.29 268.24 78.39 268.24 78.39V77.59H268.04C268.04 77.59 267.34 78.49 266.24 78.49C265.14 78.49 264.34 77.69 264.34 76.09V69.59H267.74V68.79H264.34V65.79L263.54 66.19V68.79H261.54V69.59H263.54V76.09ZM279.838 78.99V72.79C279.838 70.19 278.138 68.49 275.838 68.49C273.038 68.49 271.938 70.99 271.938 70.99H271.838V63.79H271.038V78.99H271.838V73.89C271.838 71.19 273.738 69.29 275.838 69.29C277.738 69.29 279.038 70.59 279.038 72.79V78.99H279.838ZM288.043 78.49C285.543 78.49 283.643 76.59 283.643 73.89H292.543V73.39C292.543 70.49 290.543 68.49 287.943 68.49C285.143 68.49 282.843 70.79 282.843 73.89C282.843 76.99 285.143 79.29 288.043 79.29C290.543 79.29 291.843 77.89 291.843 77.89V76.99H291.643C291.643 76.99 290.443 78.49 288.043 78.49ZM283.703 73.07C283.943 70.99 285.743 69.29 287.943 69.29C290.043 69.29 291.643 70.89 291.743 73.07H283.703ZM306.247 68.79L302.947 77.69H302.847L299.447 68.79H298.647L302.547 78.99H303.247L306.247 70.89H306.347L309.347 78.99H310.047L313.947 68.79H313.147L309.747 77.69H309.647L306.347 68.79H306.247ZM316.26 73.89C316.26 71.19 318.16 69.29 320.66 69.29C323.16 69.29 325.06 71.19 325.06 73.89C325.06 76.59 323.16 78.49 320.66 78.49C318.16 78.49 316.26 76.59 316.26 73.89ZM325.86 73.89C325.86 70.79 323.56 68.49 320.66 68.49C317.76 68.49 315.46 70.79 315.46 73.89C315.46 76.99 317.76 79.29 320.66 79.29C323.56 79.29 325.86 76.99 325.86 73.89ZM335.568 69.59C335.568 69.59 334.668 68.49 333.168 68.49C330.768 68.49 329.868 70.99 329.868 70.99H329.768L329.668 68.79H328.968V78.99H329.768V72.79C329.768 72.79 330.768 69.29 333.168 69.29C334.468 69.29 335.368 70.39 335.368 70.39L335.568 69.59ZM338.362 63.79H337.562V78.99H338.362V63.79ZM350.556 73.89C350.556 76.69 348.656 78.49 346.356 78.49C344.056 78.49 342.256 76.69 342.256 73.89C342.256 71.09 344.056 69.29 346.356 69.29C348.656 69.29 350.556 71.09 350.556 73.89ZM350.656 78.99H351.356V63.79H350.556V70.99H350.456C350.456 70.99 349.256 68.49 346.356 68.49C343.656 68.49 341.456 70.69 341.456 73.89C341.456 77.09 343.656 79.29 346.356 79.29C349.256 79.29 350.456 76.79 350.456 76.79H350.556L350.656 78.99ZM360.666 72.39C360.666 72.39 361.566 69.29 364.666 69.29C366.966 69.29 368.566 70.89 368.566 73.69C368.566 76.69 366.766 78.49 363.966 78.49C361.666 78.49 360.666 77.89 360.666 77.89V72.39ZM363.966 79.29C367.166 79.29 369.366 77.09 369.366 73.69C369.366 70.49 367.366 68.49 364.666 68.49C361.966 68.49 360.766 70.59 360.766 70.59H360.666V63.79H359.866V78.59C359.866 78.59 361.266 79.29 363.966 79.29ZM377.164 78.49C374.664 78.49 372.764 76.59 372.764 73.89H381.664V73.39C381.664 70.49 379.664 68.49 377.064 68.49C374.264 68.49 371.964 70.79 371.964 73.89C371.964 76.99 374.264 79.29 377.164 79.29C379.664 79.29 380.964 77.89 380.964 77.89V76.99H380.764C380.764 76.99 379.564 78.49 377.164 78.49ZM372.824 73.07C373.064 70.99 374.864 69.29 377.064 69.29C379.164 69.29 380.764 70.89 380.864 73.07H372.824ZM385.18 76.09C385.18 78.09 386.38 79.29 387.88 79.29C389.18 79.29 389.88 78.39 389.88 78.39V77.59H389.68C389.68 77.59 388.98 78.49 387.88 78.49C386.78 78.49 385.98 77.69 385.98 76.09V69.59H389.38V68.79H385.98V65.79L385.18 66.19V68.79H383.18V69.59H385.18V76.09ZM393.188 76.09C393.188 78.09 394.388 79.29 395.888 79.29C397.188 79.29 397.888 78.39 397.888 78.39V77.59H397.688C397.688 77.59 396.988 78.49 395.888 78.49C394.788 78.49 393.988 77.69 393.988 76.09V69.59H397.388V68.79H393.988V65.79L393.188 66.19V68.79H391.188V69.59H393.188V76.09ZM404.996 78.49C402.496 78.49 400.596 76.59 400.596 73.89H409.496V73.39C409.496 70.49 407.496 68.49 404.896 68.49C402.096 68.49 399.796 70.79 399.796 73.89C399.796 76.99 402.096 79.29 404.996 79.29C407.496 79.29 408.796 77.89 408.796 77.89V76.99H408.596C408.596 76.99 407.396 78.49 404.996 78.49ZM400.656 73.07C400.896 70.99 402.696 69.29 404.896 69.29C406.996 69.29 408.596 70.89 408.696 73.07H400.656ZM419.103 69.59C419.103 69.59 418.203 68.49 416.703 68.49C414.303 68.49 413.403 70.99 413.403 70.99H413.303L413.203 68.79H412.503V78.99H413.303V72.79C413.303 72.79 414.303 69.29 416.703 69.29C418.003 69.29 418.903 70.39 418.903 70.39L419.103 69.59ZM426.294 76.09C426.294 78.09 427.494 79.29 428.994 79.29C430.294 79.29 430.994 78.39 430.994 78.39V77.59H430.794C430.794 77.59 430.094 78.49 428.994 78.49C427.894 78.49 427.094 77.69 427.094 76.09V69.59H430.494V68.79H427.094V65.79L426.294 66.19V68.79H424.294V69.59H426.294V76.09ZM433.702 73.89C433.702 71.19 435.602 69.29 438.102 69.29C440.602 69.29 442.502 71.19 442.502 73.89C442.502 76.59 440.602 78.49 438.102 78.49C435.602 78.49 433.702 76.59 433.702 73.89ZM443.302 73.89C443.302 70.79 441.002 68.49 438.102 68.49C435.202 68.49 432.902 70.79 432.902 73.89C432.902 76.99 435.202 79.29 438.102 79.29C441.002 79.29 443.302 76.99 443.302 73.89ZM446.009 72.19C446.009 74.29 447.609 75.79 449.609 75.89L445.909 77.89V78.49H447.409C447.409 78.49 445.309 79.09 445.309 80.89C445.309 82.39 446.609 83.69 450.009 83.69C453.409 83.69 454.709 82.39 454.709 80.69C454.709 78.99 453.409 77.69 450.309 77.69H447.609L451.709 75.49C453.009 74.79 453.809 73.79 453.809 72.19C453.809 70.09 452.309 69.19 452.309 69.19C452.309 69.19 452.409 67.79 454.509 67.79V66.99C452.009 66.99 451.709 68.89 451.709 68.89C451.709 68.89 451.009 68.49 449.909 68.49C447.609 68.49 446.009 70.09 446.009 72.19ZM446.809 72.19C446.809 70.49 448.009 69.29 449.909 69.29C451.809 69.29 453.009 70.49 453.009 72.19C453.009 73.89 451.809 75.09 449.909 75.09C448.009 75.09 446.809 73.89 446.809 72.19ZM453.909 80.69C453.909 81.99 453.009 82.89 450.009 82.89C447.009 82.89 446.109 81.99 446.109 80.79C446.109 79.09 449.009 78.49 449.009 78.49H450.309C453.009 78.49 453.909 79.39 453.909 80.69ZM461.813 78.49C459.313 78.49 457.413 76.59 457.413 73.89H466.313V73.39C466.313 70.49 464.313 68.49 461.713 68.49C458.913 68.49 456.613 70.79 456.613 73.89C456.613 76.99 458.913 79.29 461.813 79.29C464.313 79.29 465.613 77.89 465.613 77.89V76.99H465.412C465.412 76.99 464.213 78.49 461.813 78.49ZM457.473 73.07C457.713 70.99 459.513 69.29 461.713 69.29C463.813 69.29 465.412 70.89 465.513 73.07H457.473ZM469.829 76.09C469.829 78.09 471.029 79.29 472.529 79.29C473.829 79.29 474.529 78.39 474.529 78.39V77.59H474.329C474.329 77.59 473.629 78.49 472.529 78.49C471.429 78.49 470.629 77.69 470.629 76.09V69.59H474.029V68.79H470.629V65.79L469.829 66.19V68.79H467.829V69.59H469.829V76.09ZM486.127 78.99V72.79C486.127 70.19 484.427 68.49 482.127 68.49C479.327 68.49 478.227 70.99 478.227 70.99H478.127V63.79H477.327V78.99H478.127V73.89C478.127 71.19 480.027 69.29 482.127 69.29C484.027 69.29 485.327 70.59 485.327 72.79V78.99H486.127ZM494.332 78.49C491.832 78.49 489.932 76.59 489.932 73.89H498.832V73.39C498.832 70.49 496.832 68.49 494.232 68.49C491.432 68.49 489.132 70.79 489.132 73.89C489.132 76.99 491.432 79.29 494.332 79.29C496.832 79.29 498.132 77.89 498.132 77.89V76.99H497.932C497.932 76.99 496.732 78.49 494.332 78.49ZM489.992 73.07C490.232 70.99 492.032 69.29 494.232 69.29C496.332 69.29 497.932 70.89 498.032 73.07H489.992ZM508.439 69.59C508.439 69.59 507.539 68.49 506.039 68.49C503.639 68.49 502.739 70.99 502.739 70.99H502.639L502.539 68.79H501.839V78.99H502.639V72.79C502.639 72.79 503.639 69.29 506.039 69.29C507.339 69.29 508.239 70.39 508.239 70.39L508.439 69.59Z" fill="#1C1C1C"/>
<defs>
<linearGradient id="paint0_linear_227_261" x1="32.8543" y1="61.1873" x2="136.024" y2="61.1873" gradientUnits="userSpaceOnUse">
<stop stop-opacity="0.99"/>
<stop offset="1" stop-color="#021D55" stop-opacity="0.99"/>
</linearGradient>
</defs>
</svg>
