<svg width="240" height="208" viewBox="0 0 240 208" fill="none" xmlns="http://www.w3.org/2000/svg">
<path fill-rule="evenodd" clip-rule="evenodd" d="M25.8309 0.450197C24.3121 1.33296 20.7166 6.69013 17.8594 12.3285C11.5598 24.7584 7.84033 36.5646 6.00391 49.955C5.12374 56.3749 5.01217 70.768 5.79444 77.0002C8.81539 101.071 17.9441 118.488 34.5197 131.806C39.1898 135.558 43.6843 138.405 52.2303 143.026C62.2075 148.42 77.6615 157.349 80.4165 159.311C85.836 163.171 90.7186 169.258 93.2308 175.287C95.0805 179.726 96.4442 187.349 96.4664 193.372C96.4796 197.06 93.6045 198.396 91.4154 195.719C88.6817 192.375 79.7103 183.783 76.4325 181.369C67.4782 174.775 58.6317 170.985 48.3831 169.355C46.7373 169.093 41.0626 168.81 35.7726 168.726C23.5409 168.532 18.1933 167.549 15.0402 164.914C14.2144 164.224 14.2362 164.207 15.6814 164.43C21.5117 165.326 28.0204 165.619 34.4902 165.277C44.9923 164.721 51.678 164.863 55.8638 165.731C62.8761 167.187 70.2897 170.333 76.1726 174.349C78.9969 176.277 80.6563 177.196 80.8914 176.961C80.9846 176.868 80.4922 175.592 79.7975 174.126C76.0619 166.242 67.8903 159.438 57.7874 155.799C55.058 154.816 54.0509 154.705 46.3201 154.541C38.4503 154.374 35.8205 154.515 19.7424 155.969C14.7128 156.424 9.17618 155.364 2.50206 152.668C1.20297 152.144 1.02258 152.168 0.439931 152.946C-0.375258 154.035 -0.0649129 156.679 1.43252 161.411C4.05934 169.71 8.41699 177.022 14.4418 183.237C22.5411 191.594 31.2949 195.917 42.6878 197.188C48.8071 197.87 53.7111 197.266 62.4896 194.75C66.2514 193.671 70.9955 192.571 73.0324 192.306C81.4164 191.212 87.8485 193.85 92.6657 200.359C94.7766 203.21 96.1928 203.704 97.5958 202.076C98.1322 201.454 98.7927 200.225 99.0633 199.345C99.7964 196.964 100.11 170.61 99.5014 162.517C98.0049 142.6 93.7648 125.93 86.5161 111.461C80.5542 99.5617 73.8373 91.0323 60.5493 78.4867C43.1683 62.0769 39.8007 58.4677 35.1438 51.261C31.2354 45.2126 28.0781 37.5101 28.0781 34.0238C28.0781 33.4585 29.3871 35.1178 31.5449 38.418C39.5186 50.6133 49.8642 61.3997 64.1995 72.4631C88.7565 91.415 103.098 115.058 107.602 144.013C109 153.002 109.494 153.711 110.929 148.786C112.954 141.84 114 132.997 114 122.843C114 101.684 107.653 84.5509 94.4222 69.997C89.7619 64.8706 83.2434 59.4729 67.4846 47.6919C51.6451 35.8508 46.1888 31.3444 41.0613 25.8699C35.037 19.4375 31.1812 12.7231 29.1772 5.17633C28.197 1.48315 27.5156 -0.0315038 26.8504 0.000495849C26.7025 0.00774911 26.2438 0.209987 25.8309 0.450197Z" fill="#62A94A"/>
<path fill-rule="evenodd" clip-rule="evenodd" d="M120.735 11.912C110.441 13.676 98.7965 17.9436 89.299 23.4321C80.9404 28.2627 73.8147 33.7286 68.25 39.5774L66.0231 41.9181L68.963 43.3635C70.5799 44.1586 72.0133 44.8013 72.1479 44.7919C72.2822 44.7826 73.9372 43.0625 75.825 40.9696C79.8837 36.4694 83.7829 33.3314 89.5925 29.8897C92.9355 27.9088 94.1084 27.4129 95.1005 27.5601C96.7435 27.8037 97.7007 28.6702 97.7927 29.9976C97.9108 31.7006 99.2938 31.0181 99.466 29.1715C99.6539 27.1618 100.763 25.2764 101.992 24.8751C103.142 24.4995 103.77 24.8627 104.945 26.5815L105.781 27.8046L103.708 29.5619C101.768 31.2061 101.688 31.3531 102.472 31.8484C103.593 32.5561 104.964 32.0532 106.972 30.198C109.413 27.9419 109.725 27.8302 108.886 29.5108C108.144 30.996 108.146 31.0542 108.984 31.9543L109.841 32.8766L110.481 31.8127C110.833 31.2279 111.105 30.532 111.087 30.2666C111.025 29.3705 112.979 27.381 113.99 27.3108C115.374 27.2148 117.26 28.5057 120.364 31.6727L123.001 34.3645L121.582 35.997C120.801 36.895 120.173 37.7845 120.186 37.9739C120.199 38.1629 119.723 38.5823 119.128 38.9053C118.236 39.3891 117.849 39.3829 116.933 38.8689C115.937 38.3099 115.84 38.0585 116.004 36.4535C116.343 33.1218 116.197 32.2384 115.213 31.6721C114.386 31.1961 114.159 31.2436 113.226 32.0895C112.646 32.6147 111.182 33.4735 109.972 33.9978C108.762 34.5221 106.757 35.5989 105.516 36.3907C104.276 37.1821 102.601 38.0173 101.795 38.246C99.8784 38.7902 97.8452 40.6077 97.4243 42.1525C96.9321 43.9613 97.8384 45.155 100.567 46.2914C103.695 47.5938 104.077 47.9541 103.493 49.0528C102.877 50.2115 103.021 51.8595 103.786 52.4105C104.532 52.947 104.96 52.4461 105.733 50.1355C106.025 49.2659 106.83 48.0875 107.524 47.5168C108.273 46.9001 108.76 46.1006 108.723 45.5475C108.689 45.0353 108.935 44.0185 109.269 43.2878C109.604 42.5571 110.189 41.2144 110.569 40.3036C111.002 39.2646 111.561 38.6269 112.068 38.5917C112.513 38.5609 114.017 39.4434 115.412 40.5527C117.845 42.4869 118 42.5443 119.185 41.9536C120.792 41.1527 121.584 41.6928 122.38 44.1303C122.823 45.4874 123.592 46.4318 125.474 47.9317C127.828 49.8079 127.969 50.0215 127.834 51.4993C127.706 52.8948 127.866 53.2121 129.258 54.322C130.785 55.5383 131.374 57.079 130.543 57.677C130.317 57.8393 129.496 57.8178 128.719 57.629C127.942 57.4407 126.747 57.2124 126.064 57.1217C124.903 56.9682 124.828 56.8486 124.927 55.3068L125.033 53.657L122.496 54.8612C119.723 56.1769 119.153 56.6898 118.82 58.1668C118.64 58.9643 118.823 59.2144 119.804 59.5121C120.467 59.713 121.48 59.7876 122.055 59.6778C123.539 59.3944 123.73 60.3402 122.357 61.1678C120.413 62.339 118.747 62.6381 117.129 62.1064C114.998 61.4066 115.058 61.3703 108.255 67.4929L104.975 70.4452L107.829 74.3619C115.141 84.3936 118.92 94.5641 120.781 109.219L121.571 115.44L123.603 117.558C124.721 118.723 126.818 120.432 128.262 121.356C130.666 122.894 131.101 123.021 133.415 122.86C137.924 122.547 139.883 123.965 141.64 128.808C142.674 131.656 143.755 132.433 146.432 132.247C147.913 132.144 148.811 132.381 150.152 133.229C152.221 134.536 154.626 135.103 157.329 134.918C158.479 134.84 159.973 135.105 161.014 135.573C161.977 136.005 163.525 136.681 164.453 137.075C166.517 137.95 167.73 140.007 167.206 141.741C167.016 142.367 165.847 144.435 164.607 146.336C161.634 150.896 161.698 150.742 161.558 153.657C161.401 156.928 159.092 162.484 157.381 163.708C156.708 164.189 154.731 165.172 152.989 165.891C149.6 167.29 148.376 168.41 147.76 170.672C147.295 172.381 140.686 179.274 139.057 179.749C137.114 180.315 136.909 180.46 136.597 181.492C136.186 182.852 135.487 183.434 133.727 183.881C130.458 184.71 128.518 187.106 128.437 190.415C128.415 191.299 128.301 192.526 128.182 193.142C128 194.092 128.208 194.403 129.555 195.191C130.429 195.701 131.156 196.286 131.172 196.488C131.218 197.092 126.43 196.644 124.402 195.857C122.259 195.024 119.993 192.944 118.875 190.785C118.323 189.718 117.855 186.94 117.193 180.795C116.075 170.414 114.616 162.965 113.431 161.586C112.966 161.045 111.896 155.674 111.036 155.21C111.036 155.21 109.11 151.357 108.896 155.21C108.682 159.063 106.971 164.628 106.971 164.628C106.329 173.404 106.795 168.575 105.259 179.749C105.152 180.527 103.882 193.124 103.762 193.953C101.194 200.375 104.189 198.02 106.329 199.091C108.682 199.733 109 200.056 111.178 200.704C115.455 201.976 120.896 203.046 126.103 203.639C132.828 204.405 148.546 203.417 156.164 201.749C177.676 197.039 195.135 187.034 209.034 171.452C216.949 162.58 222.164 154.206 226.638 143.188C232.387 129.028 234.41 116.003 233.31 100.229C232.406 87.2518 229.765 76.9997 224.408 65.6641C216.263 48.4315 201.929 32.9965 185.123 23.3621C165.772 12.2686 142.648 8.15634 120.735 11.912ZM146.636 17.6028C148.407 18.1732 148.405 18.8974 146.633 19.0367C145.867 19.0968 144.503 18.101 144.458 17.4486C144.422 16.9204 144.546 16.9293 146.636 17.6028ZM135.982 19.9636C138.257 20.9694 144.257 26.8955 144.349 28.229C144.383 28.712 143.309 30.0779 141.693 31.6066C138.622 34.5123 137.628 36.2979 137.789 38.6221C137.896 40.1672 137.844 40.233 136.442 40.3303C134.451 40.4685 131.474 38.4412 129.937 35.9004L128.726 33.8977L129.554 32.1943L130.382 30.4909L126.724 26.985C124.711 25.0568 123.193 23.3443 123.351 23.1794C123.606 22.9122 129.848 20.5595 131.996 19.9208C133.643 19.4314 134.806 19.4441 135.982 19.9636ZM123.285 21.0754C124.126 21.5294 124.054 21.5935 120.991 23.1357C117.445 24.92 115.863 24.9188 116.409 23.132C116.826 21.7684 121.809 20.2779 123.285 21.0754ZM168.002 22.508C173.633 24.5912 176.846 27.2056 173.06 26.6229C171.483 26.3799 171.512 26.4194 175.185 29.466C178.643 32.3349 179.587 33.4776 178.56 33.5489C178.331 33.5647 177.489 33.2381 176.689 32.8229C175.72 32.3199 174.481 32.1195 172.976 32.2231C169.798 32.441 168.318 31.6738 166.928 29.0858C166.292 27.902 164.748 25.9431 163.496 24.733C160.501 21.8383 159.857 20.8176 160.839 20.5243C161.752 20.2518 162.363 20.4212 168.002 22.508ZM181.995 28.9616C204.522 42.0951 220.245 64.3777 225.289 90.3198C226.187 94.9361 226.962 106.139 226.709 110.824C226.461 115.401 225.548 122.259 224.693 125.959C223.842 129.645 221.524 136.317 221.291 135.751C221.192 135.51 221.673 133.08 222.361 130.351C223.958 124.017 223.829 120.795 221.81 116.512C220.822 114.416 220.328 112.626 220.039 110.092C219.819 108.159 219.501 106.228 219.333 105.801C219.039 105.057 214.921 103.484 213.521 103.581C213.169 103.606 211.963 104.721 210.84 106.061C208.798 108.495 205.802 110.292 202.46 111.088C200.557 111.541 197.178 109.601 194.401 106.459C193.2 105.1 191.22 103.028 190.003 101.854L187.789 99.7196L187.814 96.0031C187.837 92.581 187.739 92.1072 186.575 90.0163C184.546 86.3678 184.594 81.1033 186.701 76.2876C187.605 74.223 187.731 73.3602 187.539 70.5764C187.414 68.7727 187.478 66.7501 187.68 66.0814C188.28 64.0984 187.64 63.0152 185.337 62.1173C183.48 61.3929 183.033 60.9391 181.166 57.8839C180.015 56.0018 179.163 54.1697 179.272 53.8131C179.381 53.4566 180.404 52.6983 181.545 52.1278C182.686 51.5577 183.607 50.906 183.591 50.6802C183.516 49.5956 181.806 47.9097 180.298 47.4346C178.408 46.8386 178.107 45.9149 178.962 43.3273C179.231 42.5133 179.495 40.536 179.55 38.9334C179.636 36.3828 179.795 35.8933 180.828 35.0126C181.476 34.4586 181.982 33.6407 181.951 33.1943C181.92 32.748 180.759 31.2735 179.37 29.9169C177.982 28.5606 176.836 27.3204 176.824 27.1609C176.777 26.5476 179.452 27.4789 181.995 28.9616ZM153.444 31.6907C154.115 33.1336 150.558 33.9464 149.218 32.6562C148.193 31.6696 148.601 31.3403 151.061 31.1696C152.569 31.0649 153.219 31.2072 153.444 31.6907ZM170.693 37.2251C175.516 39.715 176.474 40.3568 176.795 41.3129C177.669 43.9131 174.637 43.681 172.663 40.9972L171.307 39.1521L171.121 40.5812C170.699 43.8222 170.674 43.8377 168.302 42.3066C167.51 41.7952 167.521 41.7061 168.571 40.2655L169.669 38.759L168.222 37.7108C165.436 35.693 167.094 35.3675 170.693 37.2251Z" fill="#FAFAFA"/>
</svg>
